<?xml version="1.0" encoding="UTF-8" standalone="no"?>
<!-- Created with Inkscape (http://www.inkscape.org/) -->

<svg
   xmlns:dc="http://purl.org/dc/elements/1.1/"
   xmlns:cc="http://creativecommons.org/ns#"
   xmlns:rdf="http://www.w3.org/1999/02/22-rdf-syntax-ns#"
   xmlns:svg="http://www.w3.org/2000/svg"
   xmlns="http://www.w3.org/2000/svg"
   xmlns:sodipodi="http://sodipodi.sourceforge.net/DTD/sodipodi-0.dtd"
   xmlns:inkscape="http://www.inkscape.org/namespaces/inkscape"
   width="626.00006"
   height="626"
   id="svg3022"
   version="1.1"
   inkscape:version="0.48.4 r9939"
   sodipodi:docname="diskette.svg"
   inkscape:export-filename="D:\DOC\Fotojaba\icons\organizer\elupr\save24x24.png"
   inkscape:export-xdpi="3.4504793"
   inkscape:export-ydpi="3.4504793">
  <defs
     id="defs3024" />
  <sodipodi:namedview
     id="base"
     pagecolor="#ffffff"
     bordercolor="#666666"
     borderopacity="1.0"
     inkscape:pageopacity="0.0"
     inkscape:pageshadow="2"
     inkscape:zoom="0.35"
     inkscape:cx="310.85718"
     inkscape:cy="246.62459"
     inkscape:document-units="px"
     inkscape:current-layer="layer1"
     showgrid="false"
     fit-margin-top="0"
     fit-margin-left="0"
     fit-margin-right="0"
     fit-margin-bottom="0"
     inkscape:window-width="1024"
     inkscape:window-height="719"
     inkscape:window-x="-4"
     inkscape:window-y="-4"
     inkscape:window-maximized="1" />
  <metadata
     id="metadata3027">
    <rdf:RDF>
      <cc:Work
         rdf:about="">
        <dc:format>image/svg+xml</dc:format>
        <dc:type
           rdf:resource="http://purl.org/dc/dcmitype/StillImage" />
        <dc:title></dc:title>
      </cc:Work>
    </rdf:RDF>
  </metadata>
  <g
     inkscape:label="Layer 1"
     inkscape:groupmode="layer"
     id="layer1"
     transform="translate(-64.142825,-152.98681)">
    <g
       id="g3045"
       transform="translate(0,2)">
      <path
         inkscape:connector-curvature="0"
         id="path2997"
         d="m 75.359367,773.86795 c -2.21956,-1.35354 -5.05446,-4.01601 -6.29978,-5.9166 -2.11782,-3.23221 -2.26422,-22.7414 -2.26422,-301.73446 l 0,-298.27882 2.76965,-3.52103 c 6.30218,-8.01193 -17.02463,-7.44685 307.410173,-7.44685 l 297.04886,0 4.26929,3.59237 c 2.34813,1.97581 5.36492,6.00436 6.704,8.95234 2.3382,5.14755 2.43584,16.94505 2.46381,297.71558 l 0.0292,292.35562 -2.74664,5.67382 c -1.51066,3.12059 -4.71442,6.88995 -7.11948,8.37635 -4.36576,2.6982 -4.85172,2.70255 -301.30102,2.6976 -286.884573,-0.005 -297.064703,-0.0882 -300.963763,-2.46592 l -6e-5,0 z M 590.3472,600.93947 l 0.33785,-134.9481 -214.19908,0 -214.19908,0 0,134.55842 0,134.55843 9.61546,0.4598 c 5.28851,0.25289 101.52606,0.42824 213.86123,0.38967 l 204.24576,-0.0702 0.33786,-134.94809 0,3e-5 z M 572.10468,312.3594 c 0,-30.51836 -0.3943,-71.69908 -0.87623,-91.51272 l -0.87622,-36.0248 -194.74878,0 -194.74877,0 0,91.51271 0,91.51271 195.625,0 195.625,0 0,-55.4879 z"
         style="fill:#008000;fill-opacity:1;stroke:#000000;stroke-width:5.30508471;stroke-miterlimit:4;stroke-opacity:1;stroke-dasharray:none;stroke-dashoffset:0" />
      <path
         inkscape:connector-curvature="0"
         id="path2999"
         d="m 463.20514,277.10537 0,-61.89582 24.3832,0 24.3832,0 0,61.89582 0,61.89581 -24.3832,0 -24.3832,0 0,-61.89581 z"
         style="fill:#000000;fill-opacity:1;stroke:#000000;stroke-width:7.50252295;stroke-miterlimit:4;stroke-opacity:1;stroke-dasharray:none;stroke-dashoffset:0" />
      <path
         inkscape:connector-curvature="0"
         id="path3001"
         d="m 206.06317,521.95002 0,-8.62076 170.42585,0 170.42584,0 0,8.62076 0,8.62076 -170.42584,0 -170.42585,0 0,-8.62076 z"
         style="fill:#000000;fill-opacity:1;stroke:#000000;stroke-width:5.30508471;stroke-miterlimit:4;stroke-opacity:1;stroke-dasharray:none;stroke-dashoffset:0" />
      <path
         inkscape:connector-curvature="0"
         id="path3003"
         d="m 218.99431,605.1795 -12.93114,-0.43359 0,-7.9096 0,-7.9096 170.42585,0 170.42584,0 0,8.62077 0,8.62076 -157.4947,-0.27758 C 302.79807,605.738 226.10644,605.41798 218.99431,605.1795 z"
         style="fill:#000000;fill-opacity:1;stroke:#000000;stroke-width:5.30508471;stroke-miterlimit:4;stroke-opacity:1;stroke-dasharray:none;stroke-dashoffset:0" />
      <path
         inkscape:connector-curvature="0"
         id="path3005"
         d="m 206.06317,669.82926 0,-7.95763 170.42585,0 170.42584,0 0,7.95763 0,7.95762 -170.42584,0 -170.42585,0 0,-7.95762 z"
         style="fill:#000000;fill-opacity:1;stroke:#000000;stroke-width:5.30508471;stroke-miterlimit:4;stroke-opacity:1;stroke-dasharray:none;stroke-dashoffset:0" />
    </g>
    <path
       style="fill:#ffffff;fill-opacity:1;stroke:none;stroke-width:11.42857169999999900;stroke-miterlimit:4;stroke-opacity:1;stroke-dasharray:none;stroke-dashoffset:0"
       d="m 121.71432,125.66112 0,-88.571426 189.55705,0 189.55706,0 1.87152,39.023178 c 1.02934,21.462745 1.87151,61.319888 1.87151,88.571428 l 0,49.54825 -191.42857,0 -191.42857,0 0,-88.57143 z m 331.42857,1.42857 0,-67.142853 -30,0 -30,0 0,67.142853 0,67.14286 30,0 30,0 0,-67.14286 z"
       id="path3052"
       inkscape:connector-curvature="0"
       transform="translate(64.142825,152.98681)" />
    <path
       style="fill:#ffffff;fill-opacity:1;stroke:none"
       d="m 101.71432,449.94684 0,-130 210,0 210,0 0,130 0,130 -210,0 -210,0 0,-130 z m 385.71428,68.57143 0,-12.85715 -174.28571,0 -174.28571,0 0,12.85715 0,12.85714 174.28571,0 174.28571,0 0,-12.85714 z m 0,-71.42858 0,-12.85714 -174.28571,0 -174.28571,0 0,11.35219 0,11.35219 42.14285,0.87317 c 23.17857,0.48024 101.60715,1.15747 174.28572,1.50495 l 132.14285,0.63179 0,-12.85715 z m 0,-77.14285 0,-12.85715 -174.28571,0 -174.28571,0 0,12.85715 0,12.85714 174.28571,0 174.28571,0 0,-12.85714 z"
       id="path3054"
       inkscape:connector-curvature="0"
       transform="translate(64.142825,152.98681)" />
  </g>
</svg>
