<?xml version="1.0" encoding="UTF-8" standalone="no"?>
<!-- Created with Inkscape (http://www.inkscape.org/) -->

<svg
   xmlns:dc="http://purl.org/dc/elements/1.1/"
   xmlns:cc="http://creativecommons.org/ns#"
   xmlns:rdf="http://www.w3.org/1999/02/22-rdf-syntax-ns#"
   xmlns:svg="http://www.w3.org/2000/svg"
   xmlns="http://www.w3.org/2000/svg"
   xmlns:sodipodi="http://sodipodi.sourceforge.net/DTD/sodipodi-0.dtd"
   xmlns:inkscape="http://www.inkscape.org/namespaces/inkscape"
   width="132"
   height="132"
   id="svg3006"
   version="1.1"
   inkscape:version="0.48.4 r9939"
   sodipodi:docname="newfile.svg"
   inkscape:export-filename="D:\DOC\Fotojaba\icons\organizer\elupr\newfile24x24.png"
   inkscape:export-xdpi="16.363636"
   inkscape:export-ydpi="16.363636">
  <defs
     id="defs3008" />
  <sodipodi:namedview
     id="base"
     pagecolor="#ffffff"
     bordercolor="#666666"
     borderopacity="1.0"
     inkscape:pageopacity="0.0"
     inkscape:pageshadow="2"
     inkscape:zoom="1.4"
     inkscape:cx="262.96552"
     inkscape:cy="48.805812"
     inkscape:document-units="px"
     inkscape:current-layer="layer1"
     showgrid="false"
     fit-margin-top="0"
     fit-margin-left="0"
     fit-margin-right="0"
     fit-margin-bottom="0"
     inkscape:window-width="1024"
     inkscape:window-height="719"
     inkscape:window-x="-4"
     inkscape:window-y="-4"
     inkscape:window-maximized="1" />
  <metadata
     id="metadata3011">
    <rdf:RDF>
      <cc:Work
         rdf:about="">
        <dc:format>image/svg+xml</dc:format>
        <dc:type
           rdf:resource="http://purl.org/dc/dcmitype/StillImage" />
        <dc:title></dc:title>
      </cc:Work>
    </rdf:RDF>
  </metadata>
  <g
     inkscape:label="Layer 1"
     inkscape:groupmode="layer"
     id="layer1"
     transform="translate(-327.23228,-471.87584)">
    <g
       id="g2990"
       transform="translate(-2,0)">
      <path
         inkscape:connector-curvature="0"
         id="path2993"
         d="m 445.28039,473.34761 c 0.54346,0.16592 1.19537,0.88702 1.44869,1.60241 0.25332,0.71538 0.57028,29.74817 0.70439,64.51729 l 0.2438,63.21657 -51.6265,0 -51.62651,0 10e-4,-33.31084 c 6e-4,-18.32096 0.17951,-40.72694 0.39748,-49.79108 l 0.39633,-16.48025 6.4302,-7.93471 c 3.53661,-4.36411 8.25093,-10.34906 10.47629,-13.2999 2.22535,-2.95084 4.1877,-5.22534 4.36078,-5.05446 0.17307,0.17087 1.16666,-0.20919 2.20798,-0.84458 1.28654,-0.78505 3.9001,-1.36039 8.15534,-1.7953 6.36525,-0.65057 66.6226,-1.37717 68.43055,-0.82515 l -3e-5,0 z m -39.37582,41.90968 c -6.17004,2.86128 -6.41398,3.67598 -6.84526,22.86143 l -0.35242,15.67694 -8.57627,1.40098 c -4.71694,0.77052 -8.97463,1.25002 -9.46154,1.06555 -0.74107,-0.28076 -0.85847,-1.95206 -0.72077,-10.26008 l 0.16453,-9.92469 3.22899,-0.45824 c 5.95354,-0.84493 9.65124,-3.92085 10.5648,-8.78828 0.50144,-2.67175 -0.82932,-6.00211 -2.94533,-7.37097 -2.45229,-1.58639 -9.06678,-1.00887 -12.24759,1.06937 -4.58219,2.99385 -4.57603,2.96154 -4.77869,25.10788 -0.0989,10.80326 0.0582,20.53003 0.34928,21.61504 l 0.52902,1.97276 4.71273,-0.1153 c 5.42987,-0.13285 18.76881,-1.72954 22.93919,-2.74585 2.82987,-0.68965 2.84088,-0.70207 3.23684,-3.65296 0.21852,-1.62853 0.42096,-9.25569 0.44985,-16.94924 l 0.0525,-13.9883 2.96416,-0.38821 c 6.39002,-0.83691 9.18301,-3.21549 9.98637,-8.50464 1.11871,-7.36534 -5.5425,-11.19763 -13.25044,-7.62319 l 0,0 z"
         style="fill:#ececec;fill-opacity:1;stroke:#000000;stroke-width:2.38395262;stroke-miterlimit:4;stroke-opacity:1;stroke-dasharray:none;stroke-dashoffset:0" />
      <rect
         ry="28.966652"
         y="493.87585"
         x="367.94656"
         height="97.85714"
         width="65.714287"
         id="rect2984"
         style="fill:#ececec;fill-opacity:1;stroke:none" />
    </g>
    <path
       sodipodi:type="star"
       style="fill:#ff0000;fill-opacity:1;stroke:none"
       id="path2988"
       sodipodi:sides="10"
       sodipodi:cx="186.42857"
       sodipodi:cy="52"
       sodipodi:r1="10.618621"
       sodipodi:r2="5.3093104"
       sodipodi:arg1="0.73781506"
       sodipodi:arg2="1.0519743"
       inkscape:flatsided="false"
       inkscape:rounded="0"
       inkscape:randomized="0"
       d="m 194.28572,59.142857 -5.22448,-2.532231 -0.47457,5.78638 -2.73829,-5.119492 -3.78508,4.402337 0.79385,-5.751279 -5.64983,1.336751 4.02275,-4.186275 -5.35652,-2.239428 5.7151,-1.022255 -3.01722,-4.960222 5.22448,2.532231 0.47457,-5.78638 2.73828,5.119492 3.78508,-4.402337 -0.79384,5.751279 5.64983,-1.336751 -4.02275,4.186275 5.35652,2.239428 -5.7151,1.022255 z"
       transform="translate(246.66085,433.30441)"
       inkscape:transform-center-x="0.66688834"
       inkscape:transform-center-y="-0.35857718" />
  </g>
</svg>
