<?xml version="1.0" encoding="UTF-8" standalone="no"?>
<!-- Created with Inkscape (http://www.inkscape.org/) -->

<svg
   xmlns:dc="http://purl.org/dc/elements/1.1/"
   xmlns:cc="http://creativecommons.org/ns#"
   xmlns:rdf="http://www.w3.org/1999/02/22-rdf-syntax-ns#"
   xmlns:svg="http://www.w3.org/2000/svg"
   xmlns="http://www.w3.org/2000/svg"
   xmlns:sodipodi="http://sodipodi.sourceforge.net/DTD/sodipodi-0.dtd"
   xmlns:inkscape="http://www.inkscape.org/namespaces/inkscape"
   width="132"
   height="132"
   id="svg3006"
   version="1.1"
   inkscape:version="0.48.4 r9939"
   sodipodi:docname="opensoundfile.svg"
   inkscape:export-filename="D:\DOC\Fotojaba\icons\organizer\elupr\opensoundfile.png"
   inkscape:export-xdpi="21.818182"
   inkscape:export-ydpi="21.818182">
  <defs
     id="defs3008" />
  <sodipodi:namedview
     id="base"
     pagecolor="#ffffff"
     bordercolor="#666666"
     borderopacity="1.0"
     inkscape:pageopacity="0.0"
     inkscape:pageshadow="2"
     inkscape:zoom="1.4"
     inkscape:cx="262.96552"
     inkscape:cy="48.805812"
     inkscape:document-units="px"
     inkscape:current-layer="layer1"
     showgrid="false"
     fit-margin-top="0"
     fit-margin-left="0"
     fit-margin-right="0"
     fit-margin-bottom="0"
     inkscape:window-width="1024"
     inkscape:window-height="719"
     inkscape:window-x="-4"
     inkscape:window-y="-4"
     inkscape:window-maximized="1" />
  <metadata
     id="metadata3011">
    <rdf:RDF>
      <cc:Work
         rdf:about="">
        <dc:format>image/svg+xml</dc:format>
        <dc:type
           rdf:resource="http://purl.org/dc/dcmitype/StillImage" />
        <dc:title></dc:title>
      </cc:Work>
    </rdf:RDF>
  </metadata>
  <g
     inkscape:label="Layer 1"
     inkscape:groupmode="layer"
     id="layer1"
     transform="translate(-327.23228,-471.87584)">
    <path
       style="fill:#008000;fill-opacity:1;stroke:#000000;stroke-width:2.38395262;stroke-miterlimit:4;stroke-opacity:1;stroke-dasharray:none;stroke-dashoffset:0"
       d="m 346.82114,602.48843 c -0.54346,-0.16592 -1.19537,-0.88702 -1.44869,-1.60241 -0.25332,-0.71538 -0.57028,-29.74817 -0.70439,-64.51729 l -0.2438,-63.21657 51.6265,0 51.62651,0 -0.001,33.31084 c -6e-4,18.32096 -0.17951,40.72694 -0.39748,49.79108 l -0.39633,16.48025 -6.4302,7.93471 c -3.53661,4.36411 -8.25093,10.34906 -10.47629,13.2999 -2.22535,2.95084 -4.1877,5.22534 -4.36078,5.05446 -0.17307,-0.17087 -1.16666,0.20919 -2.20798,0.84458 -1.28654,0.78505 -3.9001,1.36039 -8.15534,1.7953 -6.36525,0.65057 -66.6226,1.37717 -68.43055,0.82515 l 3e-5,0 z m 39.37582,-41.90968 c 6.17004,-2.86128 6.41398,-3.67598 6.84526,-22.86143 l 0.35242,-15.67694 8.57627,-1.40098 c 4.71694,-0.77052 8.97463,-1.25002 9.46154,-1.06555 0.74107,0.28076 0.85847,1.95206 0.72077,10.26008 l -0.16453,9.92469 -3.22899,0.45824 c -5.95354,0.84493 -9.65124,3.92085 -10.5648,8.78828 -0.50144,2.67175 0.82932,6.00211 2.94533,7.37097 2.45229,1.58639 9.06678,1.00887 12.24759,-1.06937 4.58219,-2.99385 4.57603,-2.96154 4.77869,-25.10788 0.0989,-10.80326 -0.0582,-20.53003 -0.34928,-21.61504 l -0.52902,-1.97276 -4.71273,0.1153 c -5.42987,0.13285 -18.76881,1.72954 -22.93919,2.74585 -2.82987,0.68965 -2.84088,0.70207 -3.23684,3.65296 -0.21852,1.62853 -0.42096,9.25569 -0.44985,16.94924 l -0.0525,13.9883 -2.96416,0.38821 c -6.39002,0.83691 -9.18301,3.21549 -9.98637,8.50464 -1.11871,7.36534 5.5425,11.19763 13.25044,7.62319 l 0,0 z"
       id="path2993"
       inkscape:connector-curvature="0" />
    <path
       style="fill:#ffff00;fill-opacity:1;stroke:none"
       d="M 49.151791,86.971229 C 47.79096,85.86901 47.47898,84.962628 47.535276,82.274847 c 0.0947,-4.521518 2.341697,-6.751112 7.924557,-7.863198 l 4.148541,-0.826375 0.614786,-16.731257 c 0.358675,-9.761219 0.914451,-16.919257 1.334117,-17.182542 1.751861,-1.099062 24.953539,-3.859432 26.725216,-3.179576 0.781932,0.300056 0.96274,3.922833 0.93763,18.787014 -0.01711,10.128402 -0.305225,19.835193 -0.640257,21.570648 -0.739928,3.832805 -2.60376,5.416611 -7.74808,6.583992 -3.440761,0.780799 -3.948894,0.728866 -5.714286,-0.584015 -1.470588,-1.093643 -1.990801,-2.158799 -2.157985,-4.418557 -0.353355,-4.776154 2.752414,-7.214038 11.470288,-9.003639 l 1.964285,-0.403228 -0.01094,-10.522106 c -0.006,-5.787157 -0.291705,-10.965392 -0.634867,-11.507187 -0.475076,-0.750067 -1.622736,-0.870184 -4.81049,-0.503476 -11.077695,1.274336 -15.366236,2.142618 -15.934181,3.226123 -0.322769,0.615768 -0.72326,7.869578 -0.889979,16.119578 -0.342624,16.95448 -0.675937,18.286499 -5.219545,20.858902 -3.524731,1.995558 -7.480399,2.10733 -9.742297,0.275281 z"
       id="path3027"
       inkscape:connector-curvature="0"
       transform="translate(327.23228,471.87584)" />
  </g>
</svg>
