<?xml version="1.0" encoding="UTF-8" standalone="no"?>
<!-- Created with Inkscape (http://www.inkscape.org/) -->

<svg
   xmlns:dc="http://purl.org/dc/elements/1.1/"
   xmlns:cc="http://creativecommons.org/ns#"
   xmlns:rdf="http://www.w3.org/1999/02/22-rdf-syntax-ns#"
   xmlns:svg="http://www.w3.org/2000/svg"
   xmlns="http://www.w3.org/2000/svg"
   xmlns:sodipodi="http://sodipodi.sourceforge.net/DTD/sodipodi-0.dtd"
   xmlns:inkscape="http://www.inkscape.org/namespaces/inkscape"
   width="401.72522"
   height="401.0462"
   id="svg3000"
   version="1.1"
   inkscape:version="0.48.4 r9939"
   sodipodi:docname="reset.svg"
   inkscape:export-filename="D:\DOC\Fotojaba\icons\organizer\stop-play-pause-reset\reset.png"
   inkscape:export-xdpi="47.59"
   inkscape:export-ydpi="47.59">
  <defs
     id="defs3002" />
  <sodipodi:namedview
     id="base"
     pagecolor="#ffffff"
     bordercolor="#666666"
     borderopacity="1.0"
     inkscape:pageopacity="0.0"
     inkscape:pageshadow="2"
     inkscape:zoom="0.35"
     inkscape:cx="423.28155"
     inkscape:cy="-28.790981"
     inkscape:document-units="px"
     inkscape:current-layer="layer1"
     showgrid="false"
     fit-margin-top="0"
     fit-margin-left="0"
     fit-margin-right="0"
     fit-margin-bottom="0"
     inkscape:window-width="1024"
     inkscape:window-height="719"
     inkscape:window-x="-4"
     inkscape:window-y="-4"
     inkscape:window-maximized="1" />
  <metadata
     id="metadata3005">
    <rdf:RDF>
      <cc:Work
         rdf:about="">
        <dc:format>image/svg+xml</dc:format>
        <dc:type
           rdf:resource="http://purl.org/dc/dcmitype/StillImage" />
        <dc:title></dc:title>
      </cc:Work>
    </rdf:RDF>
  </metadata>
  <g
     inkscape:label="Layer 1"
     inkscape:groupmode="layer"
     id="layer1"
     transform="translate(-104.42774,-235.49937)">
    <g
       id="g3019"
       transform="matrix(0.77754838,0,0,1,-473.70378,0)">
      <path
         inkscape:connector-curvature="0"
         id="path3015"
         d="m 808.99576,496.56873 -58.5584,-58.57147 25.9199,0 25.91991,0 0.937,-10.35714 c 1.80746,-19.9789 3.68806,-31.9155 7.34947,-46.64876 17.66111,-71.06715 62.47923,-120.87824 122.88263,-136.57236 41.20108,-10.70494 87.91623,-6.97238 121.26373,9.68902 8.9239,4.45865 21.9041,13.86226 27.5842,19.98363 l 3.2985,3.55473 -9.7271,0.99404 c -60.2834,6.16058 -86.15174,15.9118 -110.5401,41.66874 -20.73755,21.90128 -30.4869,51.02147 -32.33584,96.58362 l -0.85374,21.03837 25.93867,0.3902 25.93868,0.3902 -58.22955,58.21433 -58.22956,58.21431 -58.5584,-58.57146 0,0 z"
         style="fill:#ffff00;fill-opacity:1;stroke:#000000;stroke-width:5.71428585;stroke-miterlimit:4;stroke-opacity:1;stroke-dasharray:none;stroke-dashoffset:0" />
      <path
         inkscape:connector-curvature="0"
         id="path3017"
         d="m 988.61694,631.57233 c -28.49953,-5.1661 -52.70073,-16.89934 -67.30204,-32.62944 l -3.3951,-3.65757 3.3951,-0.6966 c 1.86731,-0.38311 11.25616,-1.41733 20.86411,-2.29823 69.52859,-6.37473 109.41279,-36.84501 122.62209,-93.67937 2.7708,-11.92147 3.8298,-21.27251 4.4782,-39.54243 l 0.8492,-23.92857 -26.2785,0 -26.2785,0 58.9264,-58.92641 58.9264,-58.9264 58.9264,58.9264 58.9264,58.92641 -26.7835,0 -26.7836,0 -0.026,7.5 c -0.041,11.8241 -3.9057,36.05631 -8.4854,53.20784 -19.5647,73.27252 -67.0588,121.66083 -132.4271,134.92032 -17.1401,3.47674 -53.1343,3.88928 -70.15439,0.80405 l -3e-5,0 z"
         style="fill:#ffff00;fill-opacity:1;stroke:#000000;stroke-width:5.71428585;stroke-miterlimit:4;stroke-opacity:1;stroke-dasharray:none;stroke-dashoffset:0" />
    </g>
  </g>
</svg>
