<?xml version="1.0" encoding="UTF-8" standalone="no"?>
<!-- Created with Inkscape (http://www.inkscape.org/) -->

<svg
   xmlns:dc="http://purl.org/dc/elements/1.1/"
   xmlns:cc="http://creativecommons.org/ns#"
   xmlns:rdf="http://www.w3.org/1999/02/22-rdf-syntax-ns#"
   xmlns:svg="http://www.w3.org/2000/svg"
   xmlns="http://www.w3.org/2000/svg"
   xmlns:sodipodi="http://sodipodi.sourceforge.net/DTD/sodipodi-0.dtd"
   xmlns:inkscape="http://www.inkscape.org/namespaces/inkscape"
   width="617"
   height="617"
   id="svg3000"
   version="1.1"
   inkscape:version="0.48.4 r9939"
   sodipodi:docname="showpanel.svg"
   inkscape:export-filename="D:\DOC\Fotojaba\icons\organizer\elupr\showpanel_off24x24.png"
   inkscape:export-xdpi="3.5008104"
   inkscape:export-ydpi="3.5008104">
  <defs
     id="defs3002" />
  <sodipodi:namedview
     id="base"
     pagecolor="#ffffff"
     bordercolor="#666666"
     borderopacity="1.0"
     inkscape:pageopacity="0.0"
     inkscape:pageshadow="2"
     inkscape:zoom="0.35"
     inkscape:cx="301.59816"
     inkscape:cy="102.65429"
     inkscape:document-units="px"
     inkscape:current-layer="g3019"
     showgrid="false"
     fit-margin-top="0"
     fit-margin-left="0"
     fit-margin-right="0"
     fit-margin-bottom="0"
     inkscape:window-width="1024"
     inkscape:window-height="719"
     inkscape:window-x="-4"
     inkscape:window-y="-4"
     inkscape:window-maximized="1" />
  <metadata
     id="metadata3005">
    <rdf:RDF>
      <cc:Work
         rdf:about="">
        <dc:format>image/svg+xml</dc:format>
        <dc:type
           rdf:resource="http://purl.org/dc/dcmitype/StillImage" />
        <dc:title></dc:title>
      </cc:Work>
    </rdf:RDF>
  </metadata>
  <g
     inkscape:label="Layer 1"
     inkscape:groupmode="layer"
     id="layer1"
     transform="translate(-73.40184,-18.016492)">
    <g
       id="g3019"
       transform="matrix(1,0,0,1.2174818,694.28571,-127.72077)">
      <path
         inkscape:connector-curvature="0"
         id="path3015"
         d="m -345.57143,562.76127 c -3.92857,-0.67272 -16.14285,-2.67026 -27.14285,-4.439 -93.05067,-14.96212 -182.70115,-78.35309 -237.17665,-167.7053 l -10.99294,-18.03092 5.35147,-9.11193 c 25.56777,-43.5342 61.53529,-85.61514 95.67526,-111.93727 36.54585,-28.17708 86.88729,-51.86856 135.14777,-63.60267 29.20709,-7.10145 117.60986,-7.10921 146.79066,-0.0129 69.51843,16.90581 118.6322,44.97013 170.918707,97.6654 27.80235,28.01969 55.57026,65.43664 62.7755501,84.58937 0.94854,2.52136 -4.07903,13.451 -11.8284301,25.71428 -53.25492,84.27493 -133.352427,141.04016 -228.089967,161.64776 -19.39663,4.2192 -86.96989,7.69894 -101.42858,5.22317 z m 115.07609,-62.28697 c 30.90211,-9.31615 69.17569,-28.278 92.54549,-45.84979 19.418,-14.6004 57.679277,-54.01412 68.911417,-70.98701 l 7.17683,-10.84492 -11.06597,-16.35806 c -6.08628,-8.99693 -20.74243,-26.14849 -32.569197,-38.11457 -21.8544,-22.11183 -57.77837,-47.98944 -59.49037,-42.85351 -0.51726,1.55177 0.4254,10.20997 2.09477,19.24045 10.58792,57.2753 -4.39491,105.76074 -45.04771,145.77734 -57.00852,56.11638 -152.10686,54.79927 -209.812,-2.90588 -19.19858,-19.19858 -33.02432,-42.24634 -40.49259,-67.50188 -5.47292,-18.50784 -6.23819,-59.01736 -1.47245,-77.94385 1.81967,-7.22656 2.80938,-14.63652 2.19936,-16.46659 -1.49351,-4.48052 -36.80887,19.62659 -56.09131,38.28928 -8.34927,8.08092 -22.41595,24.10152 -31.25928,35.60134 l -16.07879,20.90874 5.47083,10.15873 c 8.79546,16.33218 54.97063,63.12633 76.87892,77.90948 59.40634,40.08587 99.4181,51.63101 174.45454,50.33767 42.8364,-0.73834 51.53225,-1.7298 73.64751,-8.39697 l 0,0 z M -335.06683,359.76632 c 22.14069,-17.81903 30.59963,-41.51068 23.81595,-66.70332 -4.04895,-15.03666 -22.77492,-35.84751 -36.26117,-40.29838 -17.00064,-5.61072 -44.20214,-2.29123 -57.66239,7.03673 -30.79092,21.33813 -34.31201,67.20692 -7.23448,94.24273 12.84578,12.82599 22.96847,16.2015 45.91352,15.31033 18.00244,-0.6992 21.83765,-1.86923 31.42857,-9.58809 l 0,0 z"
         style="fill:#999999;fill-opacity:1;stroke:none" />
      <path
         inkscape:connector-curvature="0"
         id="path3017"
         d="m -398.42857,361.87446 c -34.9938,-21.73379 -40.27027,-67.49333 -10.97595,-95.18765 11.11187,-10.50497 21.0711,-13.7532 42.16799,-13.7532 21.90876,0 32.92237,6.38617 46.94183,27.21891 8.71333,12.94788 9.46605,15.73836 8.47687,31.42524 -1.25205,19.85572 -11.66898,38.26384 -27.80749,49.13958 -12.81589,8.63663 -45.71797,9.28407 -58.80325,1.15712 z"
         style="fill:#ffffff;fill-opacity:1;stroke:none" />
      <path
         style="fill:#ffffff;fill-opacity:1;stroke:none"
         d="M 252.44957,468.00488 C 211.58252,459.43788 173.61129,438.12816 136.56989,402.97243 111.77414,379.43896 81.626636,342.15181 69.571438,320.10716 L 61.530866,305.40382 81.73947,275.16048 c 19.55924,-29.27153 59.33039,-72.78288 73.2232,-80.10932 l 6.79307,-3.58237 -1.99522,18.63107 c -3.31481,30.95331 -2.16409,77.16974 2.41279,96.90489 10.87068,46.87343 41.71632,92.25088 77.91426,114.62071 38.23295,23.62746 90.261,26.0381 129.77845,6.01309 28.32577,-14.35375 61.22985,-52.66869 76.39428,-88.95679 14.1932,-33.96396 18.22052,-72.10734 13.23295,-125.33203 -1.40955,-15.04196 -1.0522,-21.28973 1.21768,-21.28973 1.76697,0 14.52372,11.25 28.34832,25 24.79488,24.66108 43.17428,48.19829 59.91605,76.73028 l 8.55949,14.58743 -8.67257,13.984 C 506.25065,391.0703 454.90053,436.23482 391.2153,461.0186 c -22.07291,8.58992 -25.096,9.00885 -71.61714,9.92456 -33.42427,0.65791 -54.36478,-0.2584 -67.14859,-2.93828 l 0,0 z"
         id="path2985"
         inkscape:connector-curvature="0"
         transform="matrix(1,0,0,0.82136751,-620.88387,119.70385)" />
    </g>
  </g>
</svg>
