<?xml version="1.0" encoding="UTF-8" standalone="no"?>
<!-- Created with Inkscape (http://www.inkscape.org/) -->

<svg
   xmlns:dc="http://purl.org/dc/elements/1.1/"
   xmlns:cc="http://creativecommons.org/ns#"
   xmlns:rdf="http://www.w3.org/1999/02/22-rdf-syntax-ns#"
   xmlns:svg="http://www.w3.org/2000/svg"
   xmlns="http://www.w3.org/2000/svg"
   xmlns:sodipodi="http://sodipodi.sourceforge.net/DTD/sodipodi-0.dtd"
   xmlns:inkscape="http://www.inkscape.org/namespaces/inkscape"
   width="244"
   height="244"
   id="svg3005"
   version="1.1"
   inkscape:version="0.48.4 r9939"
   sodipodi:docname="standpresets.svg"
   inkscape:export-filename="D:\DOC\Fotojaba\icons\organizer\elupr\standpresets.png"
   inkscape:export-xdpi="47.59"
   inkscape:export-ydpi="47.59">
  <defs
     id="defs3007" />
  <sodipodi:namedview
     id="base"
     pagecolor="#ffffff"
     bordercolor="#666666"
     borderopacity="1.0"
     inkscape:pageopacity="0.0"
     inkscape:pageshadow="2"
     inkscape:zoom="0.7"
     inkscape:cx="494.65715"
     inkscape:cy="274.65565"
     inkscape:document-units="px"
     inkscape:current-layer="layer1"
     showgrid="false"
     inkscape:window-width="1024"
     inkscape:window-height="719"
     inkscape:window-x="-4"
     inkscape:window-y="-4"
     inkscape:window-maximized="1"
     fit-margin-top="0"
     fit-margin-left="0"
     fit-margin-right="0"
     fit-margin-bottom="0" />
  <metadata
     id="metadata3010">
    <rdf:RDF>
      <cc:Work
         rdf:about="">
        <dc:format>image/svg+xml</dc:format>
        <dc:type
           rdf:resource="http://purl.org/dc/dcmitype/StillImage" />
        <dc:title></dc:title>
      </cc:Work>
    </rdf:RDF>
  </metadata>
  <g
     inkscape:label="Layer 1"
     inkscape:groupmode="layer"
     id="layer1"
     transform="translate(-251.95261,-438.2964)">
    <g
       id="g3042"
       transform="matrix(0.98673256,0,0,0.81135545,3.3427672,128.7115)">
      <path
         inkscape:connector-curvature="0"
         id="path2989"
         d="m 298.78569,680.90173 c 0,-1.98847 2.95064,-13.45341 6.47289,-25.15093 3.47481,-11.53998 3.73623,-10.33945 -3.43922,-15.7942 -2.22469,-1.6912 -7.33261,-6.28059 -11.35094,-10.19863 -21.11008,-20.58325 -31.91323,-40.90743 -37.29116,-70.15659 -1.64843,-8.9654 -1.6289,-30.27251 0.0355,-38.76353 3.49253,-17.81696 10.18976,-34.43025 19.49635,-48.36302 7.65076,-11.45385 23.72607,-27.38683 35.35703,-35.04399 5.30465,-3.49228 6.18317,-4.32493 5.82485,-5.52071 -0.75099,-2.50623 -7.81548,-15.78313 -9.1738,-17.24112 -1.64209,-1.76258 -1.37938,-1.84119 -15.70668,4.69974 -14.64141,6.68433 -13.72643,6.41109 -14.51577,4.33496 -0.99393,-2.61422 -0.78377,-9.53162 0.35657,-11.73681 2.01253,-3.89181 7.9093,-10.18958 12.66634,-13.52771 2.67498,-1.8771 5.03243,-3.88688 5.23879,-4.46619 0.20635,-0.5793 0.0931,-3.01517 -0.25171,-5.41303 -0.52132,-3.62558 -0.45065,-4.536 0.41963,-5.40628 0.94593,-0.94593 1.42046,-0.71323 4.93678,2.42081 2.13964,1.90703 4.31005,3.46733 4.82312,3.46733 0.51308,0 3.41035,-0.65721 6.43838,-1.46046 3.94478,-1.04645 7.60773,-1.47645 12.92114,-1.51684 8.78325,-0.0668 10.85347,0.79086 14.31628,5.93075 l 2.1816,3.23818 -13.30505,6.57299 c -7.31778,3.61515 -13.73799,7.09587 -14.26712,7.73494 -1.17809,1.42287 -0.61766,3.25825 3.74812,12.27492 4.34567,8.97513 3.98397,8.80793 12.02509,5.5587 10.08294,-4.07429 21.44591,-7.08126 34.48203,-9.12493 l 11.71726,-1.83691 0,-9.028 0,-9.028 -2.35952,-2.75657 c -1.29774,-1.51611 -2.35952,-3.32376 -2.35952,-4.017 0,-3.14723 3.73099,-7.2608 6.58552,-7.2608 1.44377,0 5.20837,3.74162 5.82146,5.7859 0.27003,0.90045 -0.28055,2.7187 -1.53523,5.06992 -1.79228,3.35866 -1.97676,4.35421 -2.20059,11.87611 -0.14649,4.92285 0.0256,8.47393 0.42984,8.86896 0.37078,0.36235 4.85557,1.29302 9.96621,2.06816 15.42196,2.33907 25.78989,5.05226 36.85389,9.6443 6.09224,2.52854 6.41294,2.59014 7.32451,1.40677 1.28087,-1.66278 8.88112,-17.21574 8.88511,-18.18227 0.005,-1.09481 -1.98941,-2.28101 -15.90065,-9.4594 -11.79333,-6.08551 -12.364,-6.47059 -11.6517,-7.86233 1.70969,-3.34051 5.64401,-6.57937 9.27395,-7.63462 4.30323,-1.25099 7.44984,-0.98006 17.94448,1.54502 l 7.41564,1.78426 2.69659,-1.82498 c 1.48313,-1.00374 3.3433,-2.63063 4.13371,-3.61532 1.2823,-1.59747 1.56321,-1.68569 2.60758,-0.81894 0.9943,0.82519 1.10489,1.69507 0.73476,5.77958 l -0.4357,4.80818 7.04577,6.2036 c 10.96304,9.65263 12.9375,12.88389 12.18221,19.9366 -0.2473,2.30928 -0.69059,4.58857 -0.9851,5.06509 -0.40409,0.65383 -3.6634,-0.55884 -13.28463,-4.94269 -7.01204,-3.195 -13.47482,-5.89174 -14.36172,-5.99277 -1.9521,-0.22235 -4.5054,3.31617 -9.27485,12.85366 -2.70647,5.41216 -3,6.37891 -2.09118,6.88751 0.58146,0.3254 4.78643,3.2515 9.34437,6.50243 25.72768,18.35018 43.84631,46.39195 50.65839,78.4028 2.19666,10.32235 2.18771,30.94747 -0.0189,43.48257 -5.51456,31.32716 -22.89207,58.70832 -50.33689,79.31418 -6.21343,4.6651 -9.06375,7.21881 -9.06375,8.12051 0,0.72344 1.07566,5.13281 2.39036,9.79859 4.83081,17.14431 5.87863,23.10221 4.06298,23.10221 -1.51847,0 -2.98882,-2.32103 -9.80255,-15.47397 -3.51059,-6.77669 -6.7955,-12.47959 -7.29983,-12.67312 -0.50432,-0.19352 -5.0645,1.04001 -10.13375,2.74119 -29.98241,10.06173 -56.86335,9.56203 -86.74388,-1.61252 -4.82016,-1.80261 -9.52235,-3.3625 -10.4493,-3.46641 -1.55602,-0.17442 -2.15184,0.74244 -7.76287,11.94575 -3.34262,6.67407 -7.07344,13.57567 -8.2907,15.33688 -2.32494,3.36387 -4.17088,4.16384 -4.17088,1.80754 z m 89.67942,-30.9943 c 44.34594,-5.46497 81.77793,-39.90446 91.55837,-84.23871 3.90967,-17.72233 3.74621,-33.81499 -0.52924,-52.10408 -0.76179,-3.25869 -1.38507,-6.64628 -1.38507,-7.52798 0,-0.8817 -0.30718,-1.70548 -0.68261,-1.83063 -0.37543,-0.12514 -2.0305,-3.22041 -3.67793,-6.87838 -6.49291,-14.41689 -13.2876,-24.10132 -24.48736,-34.90168 -16.3922,-15.80764 -35.29822,-25.28744 -58.11725,-29.14096 -26.97981,-4.55616 -55.05059,1.23002 -77.86414,16.05002 -8.31805,5.40352 -17.31734,13.31491 -23.30695,20.48944 -9.14837,10.95819 -13.93007,18.98923 -20.78251,34.90493 l -4.09414,9.5092 -0.74512,14.76015 c -0.84843,16.80667 -0.44969,26.15504 1.50331,35.2451 8.37364,38.97424 38.00339,71.15093 75.8104,82.32699 10.54296,3.11659 16.30627,3.90849 28.93531,3.97581 6.6838,0.0356 14.72302,-0.25203 17.86493,-0.63922 z"
         style="fill:#ff0000;fill-opacity:1;stroke:none" />
      <path
         inkscape:connector-curvature="0"
         id="path2991"
         d="m 359.12197,646.92704 c -11.59565,-1.83699 -22.51191,-5.34179 -33.03327,-10.60573 -29.60226,-14.81032 -49.62924,-40.81943 -57.09338,-74.1474 -1.35705,-6.05934 -1.55753,-8.77674 -1.55753,-21.11161 0,-12.35861 0.19905,-15.04613 1.56684,-21.15511 4.46301,-19.93311 13.51653,-36.99657 26.96352,-50.819 14.14885,-14.54388 27.15974,-22.92519 44.73249,-28.8156 10.14438,-3.40041 14.25768,-4.07159 27.52234,-4.49088 14.97968,-0.47351 23.45965,0.33539 32.89208,3.13755 39.45407,11.72091 67.54045,41.85658 76.44821,82.02616 1.23108,5.55157 1.4733,8.77871 1.48462,19.77981 0.0152,14.7252 -0.91666,20.66656 -5.43164,34.63282 -9.66629,29.90082 -34.98734,55.48409 -65.33835,66.01499 -16.82531,5.83788 -34.65067,7.85192 -49.15593,5.554 z m 20.71943,-7.0467 c 1.85097,-1.65383 2.20162,-2.437 2.20162,-4.91722 0,-3.69344 -1.70777,-6.39508 -4.88046,-7.72071 -3.31664,-1.38578 -6.41173,-0.68439 -8.63396,1.95658 -1.58536,1.8841 -1.76194,2.57284 -1.49254,5.82156 0.40569,4.89194 2.46944,6.82694 7.28121,6.82694 2.71849,0 3.72276,-0.35762 5.52413,-1.96715 l 0,0 z m 1.13324,-86.8519 c 2.38499,-1.27513 4.14538,-2.89501 5.63871,-5.18864 1.57143,-2.4136 2.77636,-3.48966 4.36214,-3.89563 2.92374,-0.74849 3.02843,-2.92788 0.17077,-3.55552 -1.66761,-0.36628 -2.41021,-1.23537 -4.25475,-4.97953 l -2.23454,-4.53581 1.90747,-2.99528 c 5.37937,-8.44722 27.12795,-44.97696 30.16964,-50.67408 3.65087,-6.83811 3.91914,-8.81701 1.28853,-9.50493 -2.04762,-0.53546 -2.79582,-0.0615 -5.44218,3.4472 -2.0887,2.76934 -25.17758,40.49237 -31.65228,51.71407 l -2.33382,4.04489 -4.87139,0.60172 c -5.99869,0.74097 -5.21684,1.37262 -16.84056,-13.60542 -4.73008,-6.09507 -9.13916,-11.13615 -9.90901,-11.32937 -2.28827,-0.57432 -5.04253,0.83301 -5.03966,2.5751 0.003,2.09937 1.66976,4.68163 10.30579,15.97084 9.21525,12.04638 9.53406,12.64817 8.57918,16.19434 l -0.73118,2.71541 -35.64796,0.18018 -35.64795,0.18017 -0.40226,-2.51653 c -0.57574,-3.60178 -2.68789,-4.80169 -7.80121,-4.43182 -5.34633,0.38672 -7.42007,2.1911 -7.42007,6.45624 0,5.79578 3.64305,8.75622 9.60254,7.80325 2.74845,-0.43949 5.22873,-2.83144 5.22873,-5.04253 0,-1.19677 0.065,-1.19239 1.34829,0.0909 1.31366,1.31365 2.24716,1.3483 36.33093,1.3483 l 34.98264,0 0.4199,1.67301 c 0.52155,2.07804 4.11132,6.23233 6.8048,7.87494 3.16334,1.92914 8.82748,1.66279 13.08876,-0.61548 l 0,0 z m 91.35881,-5.52555 c 2.608,-1.71921 3.70496,-3.82403 3.70794,-7.11474 0.005,-5.72492 -5.63458,-8.66691 -11.7312,-6.11958 -4.68084,1.95578 -4.94396,9.97118 -0.42698,13.00693 2.79696,1.87976 5.8202,1.96111 8.45024,0.22739 l 0,0 z M 379.79808,453.3522 c 1.5444,-0.9545 2.71525,-4.68479 2.38634,-7.60283 -0.47848,-4.2451 -2.73722,-6.1464 -7.30187,-6.1464 -1.85761,0 -3.98995,0.32778 -4.73852,0.72841 -1.63626,0.8757 -3.26935,4.53028 -3.26935,7.31626 0,2.40277 3.37595,6.58676 5.59412,6.93305 1.4873,0.2322 6.26029,-0.56783 7.32928,-1.22849 l 0,0 z"
         style="fill:#0000ff;fill-opacity:1;stroke:none" />
      <path
         inkscape:connector-curvature="0"
         id="path3022"
         d="m 366.63375,551.6125 c -1.58667,-1.3351 -3.49326,-3.56425 -4.23686,-4.95369 l -1.352,-2.52624 -34.98406,-0.34961 c -21.02194,-0.21009 -35.58879,-0.75277 -36.49929,-1.35977 -1.03077,-0.68718 10.11183,-1.17164 34.85026,-1.51523 l 36.36549,-0.50508 0.314,-3.79616 c 0.27877,-3.37027 -0.64201,-5.12686 -8.20744,-15.65736 -10.98942,-15.29646 -11.36578,-16.03001 -8.90119,-17.34902 2.15394,-1.15275 5.31959,1.88489 17.06008,16.37022 l 6.32636,7.80541 5.79547,-0.0446 5.79547,-0.0446 15.65736,-25.90424 c 17.77042,-29.40016 20.61542,-33.6055 22.73477,-33.6055 3.78551,0 1.73082,4.22664 -18.08591,37.20396 -8.11271,13.50048 -14.75038,24.98954 -14.75038,25.53123 0,2.21367 4.19586,8.99765 6.24244,10.09295 l 2.19523,1.17485 -2.55888,1.34074 c -1.40739,0.7374 -3.33057,2.51846 -4.27373,3.95791 -4.30455,6.56957 -14.11841,8.65142 -19.48719,4.13389 z"
         style="fill:#ffff00;fill-opacity:1;stroke:none" />
      <path
         inkscape:connector-curvature="0"
         id="path3024"
         d="m 276.74529,546.17523 c -1.75127,-1.11355 -3.2959,-5.74649 -2.68928,-8.06618 0.98731,-3.7755 8.31503,-5.55442 11.94528,-2.89992 2.43021,1.77701 2.45004,7.05948 0.0365,9.7264 -1.85546,2.05025 -6.94908,2.72979 -9.29251,1.2397 l 0,0 z"
         style="fill:#ffff00;fill-opacity:1;stroke:none" />
      <path
         inkscape:connector-curvature="0"
         id="path3026"
         d="m 369.37981,451.30064 c -3.43208,-4.36318 -1.40884,-9.70953 4.13524,-10.92721 4.50618,-0.98972 7.97037,1.66526 7.97037,6.10855 0,7.13397 -7.8321,10.25155 -12.10561,4.81866 z"
         style="fill:#ffff00;fill-opacity:1;stroke:none" />
      <path
         inkscape:connector-curvature="0"
         id="path3028"
         d="m 463.48386,545.64108 c -6.17639,-6.57447 2.08103,-15.37653 9.18377,-9.78952 3.47777,2.73561 3.65538,6.89538 0.42403,9.93108 -3.0331,2.84944 -6.85074,2.79319 -9.6078,-0.14156 l 0,0 z"
         style="fill:#ffff00;fill-opacity:1;stroke:none" />
      <path
         inkscape:connector-curvature="0"
         id="path3030"
         d="m 369.56849,639.64472 c -4.95701,-5.97283 0.17489,-14.63526 6.99642,-11.80969 5.23808,2.16968 6.746,8.65439 2.67544,11.50552 -2.7003,1.89136 -8.21078,2.06466 -9.67186,0.30417 l 0,0 z"
         style="fill:#ffff00;fill-opacity:1;stroke:none" />
      <path
         inkscape:connector-curvature="0"
         id="path3032"
         d=""
         style="fill:#ffff00;fill-opacity:1;stroke:none" />
      <path
         inkscape:connector-curvature="0"
         id="path3034"
         d="m 399.57707,644.14203 c 6.1195,-1.72513 9.33972,-2.79697 13.53659,-4.50558 19.49139,-7.93525 36.84757,-22.20145 48.82205,-40.13011 5.092,-7.62393 8.97446,-15.61026 11.79977,-24.27244 2.51416,-7.70819 3.82942,-12.99466 4.57531,-18.38968 0.61707,-4.46331 0.7278,-7.0396 0.72529,-16.875 -0.002,-8.34932 -0.0512,-10.23629 -0.32721,-12.58928 -0.80747,-6.88303 -3.34658,-16.28993 -6.63441,-24.57918 -0.91917,-2.31741 -3.47743,-7.74629 -5.94142,-12.60832 -0.0373,-0.0737 0.85195,-0.13393 1.97618,-0.13393 l 2.04406,0 2.45367,5.13393 c 2.95697,6.18702 4.08001,8.33916 4.75033,9.10332 0.27816,0.3171 0.54392,0.83942 0.59058,1.16072 0.0467,0.32129 0.17614,1.25251 0.28772,2.06937 0.11159,0.81686 0.75429,4.11151 1.42822,7.32143 0.67393,3.20993 1.43122,7.16212 1.68287,8.78266 2.30047,14.81413 1.70088,28.84997 -1.87575,43.90954 -3.77845,15.90931 -11.66801,31.49241 -22.47617,44.39387 -3.99801,4.77234 -9.72387,10.43275 -14.64982,14.48237 -8.89137,7.30959 -20.28533,13.9062 -30.38744,17.59301 l -1.40856,0.51407 -6.11093,-0.0142 -6.11093,-0.0142 1.25,-0.35238 z"
         style="fill:#ffff00;fill-opacity:1;stroke:none" />
      <path
         inkscape:connector-curvature="0"
         id="path3038"
         d="m 316.31793,634.95298 c -12.64715,-7.84362 -23.61879,-18.20168 -32.68628,-30.85832 -10.46169,-14.60271 -17.5422,-33.36686 -19.07203,-50.54306 -0.45711,-5.13221 -0.25173,-22.64581 0.3905,-33.29977 0.41702,-6.91785 -0.1,-5.31666 6.29334,-19.49178 3.73939,-8.29091 6.8958,-14.20988 10.28726,-19.29089 18.31244,-27.43523 45.72676,-44.52056 78.06977,-48.65513 22.2154,-2.83991 46.69585,1.81 66.25,12.58377 14.58257,8.03457 29.23219,21.40299 38.26887,34.92204 2.95539,4.42132 5.66407,9.01905 5.4329,9.22184 -0.0717,0.0629 -0.88518,0.22386 -1.80776,0.35771 -1.63221,0.23681 -1.69366,0.21157 -2.28002,-0.93638 -1.00802,-1.97345 -4.81498,-7.79634 -7.07573,-10.8226 -5.08469,-6.8064 -12.09508,-14.10851 -18.51655,-19.28707 -13.20635,-10.6502 -32.06289,-19.43643 -47.58682,-22.17314 -5.04101,-0.88868 -14.19506,-1.31531 -22.92469,-1.06842 -12.9659,0.3667 -18.80258,1.24471 -27.61735,4.15446 -13.0032,4.29234 -23.58183,9.9318 -33.75,17.99209 -4.58685,3.636 -15.3646,14.39295 -18.81122,18.77493 -7.57157,9.62639 -12.9329,19.56774 -17.14192,31.78572 -1.45881,4.23465 -3.78237,13.77235 -4.25243,17.45528 -0.51186,4.01038 -0.5013,27.23102 0.014,30.759 1.49128,10.21046 5.03223,21.1308 10.36451,31.96429 9.94518,20.20543 24.26457,35.05747 44.64852,46.30933 l 3.75,2.06999 -3.57143,7.1e-4 -3.57143,7.1e-4 -3.10398,-1.92505 0,-2.6e-4 z"
         style="fill:#ffff00;fill-opacity:1;stroke:none" />
      <path
         inkscape:connector-curvature="0"
         id="path3040"
         d="m 359.96118,650.01868 c -13.47963,-1.62916 -24.66084,-5.02945 -36.60714,-11.13251 l -3.57143,-1.82455 3.65848,-0.0182 c 3.59721,-0.0179 3.71973,0.009 7.317,1.62602 11.02601,4.95548 24.05244,8.29968 35.52525,9.12019 8.36207,0.59803 18.80395,-0.28614 28.13971,-2.38274 3.32746,-0.74728 4.79788,-0.87768 9.64286,-0.85514 l 5.7167,0.0266 -2.5,0.87791 c -3.64054,1.27843 -8.94625,2.58235 -14.64286,3.5986 -4.6293,0.82585 -5.9797,0.90024 -18.21428,1.00347 -7.26786,0.0613 -13.77679,0.0435 -14.46429,-0.0396 l 0,0 z"
         style="fill:#ffff00;fill-opacity:1;stroke:none" />
    </g>
  </g>
</svg>
