<?xml version="1.0" encoding="UTF-8" standalone="no"?>
<!-- Created with Inkscape (http://www.inkscape.org/) -->

<svg
   xmlns:dc="http://purl.org/dc/elements/1.1/"
   xmlns:cc="http://creativecommons.org/ns#"
   xmlns:rdf="http://www.w3.org/1999/02/22-rdf-syntax-ns#"
   xmlns:svg="http://www.w3.org/2000/svg"
   xmlns="http://www.w3.org/2000/svg"
   xmlns:sodipodi="http://sodipodi.sourceforge.net/DTD/sodipodi-0.dtd"
   xmlns:inkscape="http://www.inkscape.org/namespaces/inkscape"
   width="414.46875"
   height="443.65903"
   id="svg5315"
   version="1.1"
   inkscape:version="0.48.4 r9939"
   sodipodi:docname="start.svg"
   inkscape:export-filename="D:\DOC\Fotojaba\icons\organizer\stop-play-pause-reset\start.png"
   inkscape:export-xdpi="47.59"
   inkscape:export-ydpi="47.59">
  <defs
     id="defs5317" />
  <sodipodi:namedview
     id="base"
     pagecolor="#ffffff"
     bordercolor="#666666"
     borderopacity="1.0"
     inkscape:pageopacity="0.0"
     inkscape:pageshadow="2"
     inkscape:zoom="0.49497475"
     inkscape:cx="-152.68554"
     inkscape:cy="327.2882"
     inkscape:document-units="px"
     inkscape:current-layer="layer1"
     showgrid="false"
     fit-margin-top="0"
     fit-margin-left="0"
     fit-margin-right="0"
     fit-margin-bottom="0"
     inkscape:window-width="1024"
     inkscape:window-height="719"
     inkscape:window-x="-4"
     inkscape:window-y="-4"
     inkscape:window-maximized="1" />
  <metadata
     id="metadata5320">
    <rdf:RDF>
      <cc:Work
         rdf:about="">
        <dc:format>image/svg+xml</dc:format>
        <dc:type
           rdf:resource="http://purl.org/dc/dcmitype/StillImage" />
        <dc:title></dc:title>
      </cc:Work>
    </rdf:RDF>
  </metadata>
  <g
     inkscape:label="Layer 1"
     inkscape:groupmode="layer"
     id="layer1"
     transform="translate(-172.90625,-250.52858)">
    <path
       style="fill:#008000;fill-opacity:1;stroke:#000000;stroke-width:4;stroke-miterlimit:4;stroke-opacity:1;stroke-dasharray:none;stroke-dashoffset:0"
       d="m 300.56364,690.20496 c -1.88151,-1.10059 -5.03784,-5.70819 -7.01407,-10.23911 -3.42377,-7.8497 -82.08036,-268.99653 -106.88457,-354.86623 -6.47085,-22.40144 -11.76519,-43.01555 -11.76519,-45.80912 0,-2.79358 2.0234,-7.65157 4.49645,-10.79554 6.11309,-7.77153 16.63904,-7.73241 25.94308,0.0964 l 6.90803,5.81273 18.74995,-10.01112 c 11.45096,-6.11398 23.00351,-10.573 29.67668,-11.45452 15.65481,-2.06797 43.2042,3.67877 79.64789,16.61437 54.60361,19.38143 70.81555,23.81224 91.87194,25.1091 27.488,1.69299 32.71674,-0.45083 55.63945,-22.81258 10.43207,-10.17675 19.35167,-18.08936 19.82135,-17.58356 0.85486,0.9206 32.99165,102.51076 62.00895,196.02137 l 15.43662,49.7458 -11.26962,11.41135 c -6.19828,6.27626 -17.27978,14.37017 -24.62553,17.98645 -36.9165,18.17394 -72.51072,14.52783 -160.61032,-16.45225 -46.50051,-16.35182 -58.23786,-17.90776 -74.04087,-9.81512 -8.63079,4.41979 -26.84048,22.71991 -26.84048,26.97376 0,1.13831 9.33907,34.32431 20.75349,73.74668 18.59515,64.22268 20.48202,72.33243 18.14313,77.97901 -1.4357,3.46609 -4.36483,7.24094 -6.50917,8.38856 -4.88587,2.61482 -15.02885,2.59072 -19.53719,-0.0464 l 0,-2e-5 z"
       id="path2989"
       inkscape:connector-curvature="0" />
  </g>
</svg>
